<svg width="233" height="350" viewBox="0 0 233 350" fill="none" xmlns="http://www.w3.org/2000/svg">
<g filter="url(#filter0_d)">
<path d="M170.398 319.447C252.473 319.447 319.008 252.949 319.008 170.921C319.008 88.8919 252.473 22.3945 170.398 22.3945C88.3237 22.3945 21.7891 88.8919 21.7891 170.921C21.7891 252.949 88.3237 319.447 170.398 319.447Z" fill="#1D1E1D"/>
<path d="M328.116 154.416C319.856 74.6466 252.402 12.4414 170.398 12.4414C88.3941 12.4414 20.9478 74.6466 12.6875 154.416H328.116Z" fill="#C5312A"/>
<path d="M12.6875 187.422C20.9478 267.191 88.4017 329.396 170.398 329.396C252.395 329.396 319.856 267.191 328.109 187.422H12.6875Z" fill="#E7E7E9"/>
<path d="M170.397 220.855C197.991 220.855 220.36 198.498 220.36 170.92C220.36 143.341 197.991 120.984 170.397 120.984C142.803 120.984 120.434 143.341 120.434 170.92C120.434 198.498 142.803 220.855 170.397 220.855Z" fill="#1D1E1D"/>
<path d="M206.686 185.349C214.656 165.328 204.878 142.64 184.846 134.674C164.813 126.708 142.113 136.481 134.142 156.502C126.172 176.524 135.95 199.211 155.983 207.177C176.015 215.143 198.716 205.37 206.686 185.349Z" fill="#F7F7F7"/>
<path d="M170.401 197.241C184.945 197.241 196.735 185.457 196.735 170.921C196.735 156.385 184.945 144.602 170.401 144.602C155.857 144.602 144.066 156.385 144.066 170.921C144.066 185.457 155.857 197.241 170.401 197.241Z" fill="#B8B5B5"/>
<path d="M170.402 195.3C183.875 195.3 194.796 184.385 194.796 170.92C194.796 157.455 183.875 146.539 170.402 146.539C156.93 146.539 146.008 157.455 146.008 170.92C146.008 184.385 156.93 195.3 170.402 195.3Z" fill="#F7F7F7"/>
</g>
<defs>
<filter id="filter0_d" x="0.6875" y="0.441406" width="347.429" height="348.956" filterUnits="userSpaceOnUse" color-interpolation-filters="sRGB">
<feFlood flood-opacity="0" result="BackgroundImageFix"/>
<feColorMatrix in="SourceAlpha" type="matrix" values="0 0 0 0 0 0 0 0 0 0 0 0 0 0 0 0 0 0 127 0"/>
<feOffset dx="4" dy="4"/>
<feGaussianBlur stdDeviation="8"/>
<feColorMatrix type="matrix" values="0 0 0 0 0.00392157 0 0 0 0 0.109804 0 0 0 0 0.25098 0 0 0 0.2 0"/>
<feBlend mode="normal" in2="BackgroundImageFix" result="effect1_dropShadow"/>
<feBlend mode="normal" in="SourceGraphic" in2="effect1_dropShadow" result="shape"/>
</filter>
</defs>
</svg>
