<svg width="180" height="181" viewBox="0 0 180 181" fill="none" xmlns="http://www.w3.org/2000/svg">
<g opacity="0.9" clip-path="url(#clip0)">
<path d="M150.026 141.664C178.296 108.73 174.468 59.1657 141.477 30.96C108.487 2.75436 58.826 6.588 30.5569 39.5227C2.28776 72.4574 6.11526 122.021 39.1059 150.227C72.0965 178.433 121.757 174.599 150.026 141.664Z" fill="#1D1E1D"/>
<path d="M172.865 75.4648C165.255 33.7601 127.122 3.72976 83.8425 7.07078C40.5631 10.4118 7.50397 45.938 6.38725 88.3164L172.865 75.4648Z" fill="#42484A"/>
<path d="M7.73047 105.715C15.3404 147.42 53.4739 177.45 96.7414 174.11C140.009 170.77 173.092 135.242 174.197 92.8642L7.73047 105.715Z" fill="#E7E7E9"/>
<path d="M92.3277 116.907C106.891 115.783 117.786 103.089 116.664 88.5546C115.542 74.0201 102.826 63.1488 88.2631 64.273C73.7001 65.3972 62.8044 78.0912 63.9268 92.6257C65.0492 107.16 77.7647 118.032 92.3277 116.907Z" fill="#1D1E1D"/>
<path d="M91.8831 111.15C103.261 110.272 111.774 100.354 110.897 88.9981C110.02 77.6422 100.085 69.1484 88.7074 70.0268C77.3293 70.9051 68.8164 80.823 69.6933 92.1789C70.5703 103.535 80.5049 112.029 91.8831 111.15Z" fill="#F7F7F7"/>
<path d="M91.3671 104.469C99.0459 103.876 104.791 97.1828 104.199 89.519C103.607 81.8552 96.9027 76.123 89.2239 76.7157C81.5452 77.3085 75.8001 84.0018 76.3919 91.6656C76.9837 99.3294 83.6884 105.062 91.3671 104.469Z" fill="#B8B5B5"/>
<path d="M91.2885 103.445C98.4006 102.896 103.722 96.697 103.174 89.5987C102.625 82.5004 96.4156 77.1912 89.3034 77.7403C82.1913 78.2893 76.8701 84.4887 77.4183 91.5869C77.9665 98.6852 84.1763 103.994 91.2885 103.445Z" fill="#F7F7F7"/>
<path d="M78.3566 58.9173L77.5104 47.9596L87.9823 47.1512L94.0173 57.7083L99.9727 57.2486L93.7734 46.4082C98.2627 44.9368 101.353 40.5543 100.974 35.6464C100.529 29.8909 95.473 25.5571 89.6946 26.0032L70.5078 27.4844L70.715 30.1679L72.1211 48.3757L72.9673 59.3333L78.3566 58.9173ZM76.3125 32.4471L90.11 31.382C92.9166 31.1653 95.368 33.2612 95.5844 36.0624C95.8007 38.8636 93.7001 41.3108 90.8934 41.5275L77.0959 42.5926L76.3125 32.4471Z" fill="#C5312A"/>
</g>
<defs>
<clipPath id="clip0">
<rect width="166.973" height="167.545" fill="white" transform="matrix(0.997034 -0.0769677 0.0769941 0.997032 0.609375 13.4961)"/>
</clipPath>
</defs>
</svg>
